<svg width="64" height="64" viewBox="0 0 64 64" fill="none" xmlns="http://www.w3.org/2000/svg">
<g filter="url(#filter0_d_142_9719)">
<path d="M32.0004 57.6C46.1389 57.6 57.6004 46.1385 57.6004 32C57.6004 17.8615 46.1389 6.39997 32.0004 6.39997C17.8619 6.39997 6.40039 17.8615 6.40039 32C6.40039 46.1385 17.8619 57.6 32.0004 57.6Z" fill="#50A56E"/>
<path d="M56.6004 32C56.6004 45.5862 45.5866 56.6 32.0004 56.6C18.4142 56.6 7.40039 45.5862 7.40039 32C7.40039 18.4138 18.4142 7.39997 32.0004 7.39997C45.5866 7.39997 56.6004 18.4138 56.6004 32Z" stroke="black" stroke-width="2"/>
</g>
<path fill-rule="evenodd" clip-rule="evenodd" d="M45.7349 23.9519C46.853 24.8836 47.0041 26.5453 46.0724 27.6634L33.3748 42.9004C31.0877 45.645 26.8588 45.6027 24.627 42.813L17.8959 34.3991C16.9867 33.2626 17.171 31.6042 18.3075 30.695C19.444 29.7858 21.1024 29.9701 22.0116 31.1066L28.7427 39.5205C28.8915 39.7064 29.1734 39.7093 29.3259 39.5263L42.0234 24.2893C42.9551 23.1712 44.6169 23.0201 45.7349 23.9519Z" fill="white"/>
<defs>
<filter id="filter0_d_142_9719" x="6.40039" y="6.39997" width="53.1992" height="53.2" filterUnits="userSpaceOnUse" color-interpolation-filters="sRGB">
<feFlood flood-opacity="0" result="BackgroundImageFix"/>
<feColorMatrix in="SourceAlpha" type="matrix" values="0 0 0 0 0 0 0 0 0 0 0 0 0 0 0 0 0 0 127 0" result="hardAlpha"/>
<feOffset dx="2" dy="2"/>
<feComposite in2="hardAlpha" operator="out"/>
<feColorMatrix type="matrix" values="0 0 0 0 0 0 0 0 0 0 0 0 0 0 0 0 0 0 1 0"/>
<feBlend mode="normal" in2="BackgroundImageFix" result="effect1_dropShadow_142_9719"/>
<feBlend mode="normal" in="SourceGraphic" in2="effect1_dropShadow_142_9719" result="shape"/>
</filter>
</defs>
</svg>
